<svg width="48" height="48" viewBox="0 0 48 48" fill="none" xmlns="http://www.w3.org/2000/svg">
    <path d="M48 11.9174L9.19149 7.45455L6.6383 2.49587L0.510638 2L0 3.98347L4.08511 5.47107L10.7234 29.2727L13.2766 38.6942H44.4255L44.9362 35.719H14.8085L13.2766 29.2727L46.4681 24.314L48 11.9174Z"
          fill="black"/>
    <path d="M19.9149 42.6612C19.9149 44.3043 18.5432 45.6364 16.8511 45.6364C15.159 45.6364 13.7872 44.3043 13.7872 42.6612C13.7872 41.018 15.159 39.6859 16.8511 39.6859C18.5432 39.6859 19.9149 41.018 19.9149 42.6612Z"
          fill="black"/>
    <path d="M41.3617 42.6612C41.3617 44.3043 39.99 45.6364 38.2979 45.6364C36.6058 45.6364 35.234 44.3043 35.234 42.6612C35.234 41.018 36.6058 39.6859 38.2979 39.6859C39.99 39.6859 41.3617 41.018 41.3617 42.6612Z"
          fill="black"/>
</svg>
