<?xml version="1.0" encoding="utf-8"?>
<!-- Svg Vector Icons : http://www.onlinewebfonts.com/icon -->
<!DOCTYPE svg PUBLIC "-//W3C//DTD SVG 1.1//EN" "http://www.w3.org/Graphics/SVG/1.1/DTD/svg11.dtd">
<svg version="1.1" xmlns="http://www.w3.org/2000/svg" xmlns:xlink="http://www.w3.org/1999/xlink" x="0px" y="0px" viewBox="0 0 1000 1000" enable-background="new 0 0 1000 1000" xml:space="preserve">
<metadata> Svg Vector Icons : http://www.onlinewebfonts.com/icon </metadata>
<g><g transform="translate(0.000000,511.000000) scale(0.100000,-0.100000)"><path d="M4783,4847.5c-6.3-16.7-14.6-43.8-18.8-60.5c-6.3-16.7,75.1-102.2,196-210.6c417-364.9,834-906.9,1088.3-1417.7c120.9-241.9,260.6-608.8,339.8-894.4c206.4-758.9,216.8-1640.8,22.9-2401.8c-168.9-663-500.4-1330.2-913.2-1838.9C4789.2-2845.7,3811.4-3442,2739.8-3658.8c-218.9-43.8-227.3-47.9-243.9-106.3c-8.3-33.4-12.5-70.9-8.3-85.5c14.6-33.3,371.1-241.8,602.5-350.3c1317.7-613,2800-610.9,4090.6,8.3c512.9,246,884,502.5,1280.1,888.2c404.5,392,694.3,792.3,952.8,1313.5c250.2,510.8,410.7,1063.3,469.1,1632.5c35.4,339.8,14.6,948.6-43.8,1276c-306.5,1743-1538.7,3177.4-3194.1,3721.5c-508.7,166.8-975.7,239.8-1528.2,239.8C4845.5,4878.8,4791.3,4872.5,4783,4847.5z"/><path d="M1167.8,4637c-37.5-125.1-143.9-231.4-264.8-262.7c-93.8-25-127.2-79.2-50-79.2c129.3,0,296.1-158.4,325.2-308.6c18.8-87.6,50-77.1,81.3,29.2c12.5,43.8,37.5,104.2,54.2,129.3c33.4,56.3,204.3,150.1,269,150.1c22.9,0,41.7,14.6,41.7,31.3c0,16.7-18.8,31.3-41.7,31.3c-123,0-291.9,148-327.3,289.8C1228.2,4751.6,1199.1,4747.5,1167.8,4637z"/><path d="M2950.4,3375.6c-16.7-83.4-135.5-202.2-218.9-218.9c-83.4-16.7-100.1-43.8-39.6-60.5c123-37.5,187.6-83.4,225.2-158.5c22.9-43.8,41.7-93.8,41.7-112.6c0-58.4,31.3-31.3,68.8,60.5c45.9,110.5,89.7,154.3,193.9,189.7c91.7,31.3,118.8,73,45.9,73c-87.6,0-185.6,79.2-231.4,189.7c-25,56.3-50,102.2-58.4,102.2C2971.2,3440.2,2958.7,3411,2950.4,3375.6z"/><path d="M644.5,1422.1c-41.7-181.4-127.2-302.3-264.8-373.2c-66.7-35.4-156.4-70.9-198.1-79.2c-118.8-22.9-106.3-77.1,27.1-108.4c171-41.7,287.7-125.1,364.9-264.8c35.4-66.7,73-158.4,79.2-202.2c10.4-62.5,22.9-81.3,54.2-81.3s41.7,14.6,41.7,58.4c0,68.8,89.6,269,152.2,333.6c60.5,66.7,221,145.9,325.2,162.6c64.6,10.4,85.5,22.9,85.5,52.1c0,22.9-14.6,39.6-31.3,39.6c-62.5,0-264.8,81.3-333.6,133.4c-79.2,60.5-198.1,283.5-198.1,371.1c0,43.8-10.4,58.4-39.6,58.4C679.9,1522.1,663.2,1497.1,644.5,1422.1z"/><path d="M4564.1,1428.3c0-64.6-56.3-206.4-118.8-304.4c-58.4-89.6-246-198.1-377.4-218.9c-64.6-10.4-87.6-22.9-87.6-50s22.9-39.6,87.6-50c135.5-22.9,319-129.3,381.5-225.2c64.6-95.9,114.7-229.3,114.7-300.2c0-35.4,12.5-50,41.7-50s43.8,18.8,54.2,79.2c20.8,120.9,108.4,287.7,185.6,354.4c70.9,64.6,271,150.1,344,150.1c27.1,0,41.7,14.6,41.7,37.5c0,31.3-27.1,45.9-112.6,64.6c-133.4,29.2-281.4,118.8-344,208.5c-48,66.7-127.2,268.9-127.2,325.2c0,16.7-18.8,31.3-41.7,31.3C4574.5,1480.4,4564.1,1465.8,4564.1,1428.3z"/><path d="M2389.5-1540.6c-43.8-127.2-123-206.4-237.7-237.7c-91.7-22.9-123-77.1-47.9-77.1c25,0,81.3-18.8,127.2-43.8c64.6-31.3,95.9-68.8,135.5-150.1c27.1-60.5,50-120.9,50-133.4c0-50,37.5-27.1,52.1,31.3c29.2,118.8,81.3,193.9,166.8,243.9c47.9,29.2,106.3,52.1,131.3,52.1c79.2,0,50,52.1-43.8,77.1c-114.7,31.3-193.9,110.5-237.7,237.7c-20.8,56.3-41.7,102.2-47.9,102.2S2410.4-1484.3,2389.5-1540.6z"/></g></g>
</svg>