<svg xmlns="http://www.w3.org/2000/svg" viewBox="0 0 1000 1000"><path d="M478.3 26.25c-.63 1.67-1.46 4.38-1.88 6.05-.63 1.67 7.51 10.22 19.6 21.06 41.7 36.49 83.4 90.69 108.83 141.77 12.09 24.19 26.06 60.88 33.98 89.44 20.64 75.89 21.68 164.08 2.29 240.18-16.89 66.3-50.04 133.02-91.32 183.89-70.88 86.93-168.66 146.56-275.82 168.24-21.89 4.38-22.73 4.79-24.39 10.63-.83 3.34-1.25 7.09-.83 8.55 1.46 3.33 37.11 24.18 60.25 35.03 131.77 61.3 280 61.09 409.06-.83 51.29-24.6 88.4-50.25 128.01-88.82 40.45-39.2 69.43-79.23 95.28-131.35 25.02-51.08 41.07-106.33 46.91-163.25 3.54-33.98 1.46-94.86-4.38-127.6-30.65-174.3-153.87-317.74-319.41-372.15-50.87-16.68-97.57-23.98-152.82-23.98-27.11.01-32.53.64-33.36 3.14zM116.78 47.3c-3.75 12.51-14.39 23.14-26.48 26.27-9.38 2.5-12.72 7.92-5 7.92 12.93 0 29.61 15.84 32.52 30.86 1.88 8.76 5 7.71 8.13-2.92 1.25-4.38 3.75-10.42 5.42-12.93 3.34-5.63 20.43-15.01 26.9-15.01 2.29 0 4.17-1.46 4.17-3.13s-1.88-3.13-4.17-3.13c-12.3 0-29.19-14.8-32.73-28.98-2.72-10.41-5.63-10-8.76 1.05zm178.26 126.14c-1.67 8.34-13.55 20.22-21.89 21.89-8.34 1.67-10.01 4.38-3.96 6.05 12.3 3.75 18.76 8.34 22.52 15.85 2.29 4.38 4.17 9.38 4.17 11.26 0 5.84 3.13 3.13 6.88-6.05 4.59-11.05 8.97-15.43 19.39-18.97 9.17-3.13 11.88-7.3 4.59-7.3-8.76 0-18.56-7.92-23.14-18.97-2.5-5.63-5-10.22-5.84-10.22-.64 0-1.89 2.92-2.72 6.46zM64.45 368.79c-4.17 18.14-12.72 30.23-26.48 37.32-6.67 3.54-15.64 7.09-19.81 7.92-11.88 2.29-10.63 7.71 2.71 10.84 17.1 4.17 28.77 12.51 36.49 26.48 3.54 6.67 7.3 15.84 7.92 20.22 1.04 6.25 2.29 8.13 5.42 8.13s4.17-1.46 4.17-5.84c0-6.88 8.96-26.9 15.22-33.36 6.05-6.67 22.1-14.59 32.52-16.26 6.46-1.04 8.55-2.29 8.55-5.21 0-2.29-1.46-3.96-3.13-3.96-6.25 0-26.48-8.13-33.36-13.34-7.92-6.05-19.81-28.35-19.81-37.11 0-4.38-1.04-5.84-3.96-5.84-2.91.01-4.58 2.51-6.45 10.01z"/><path d="M456.41 368.17c0 6.46-5.63 20.64-11.88 30.44-5.84 8.96-24.6 19.81-37.74 21.89-6.46 1.04-8.76 2.29-8.76 5s2.29 3.96 8.76 5c13.55 2.29 31.9 12.93 38.15 22.52 6.46 9.59 11.47 22.93 11.47 30.02 0 3.54 1.25 5 4.17 5s4.38-1.88 5.42-7.92c2.08-12.09 10.84-28.77 18.56-35.44 7.09-6.46 27.1-15.01 34.4-15.01 2.71 0 4.17-1.46 4.17-3.75 0-3.13-2.71-4.59-11.26-6.46-13.34-2.92-28.14-11.88-34.4-20.85-4.8-6.67-12.72-26.89-12.72-32.52 0-1.67-1.88-3.13-4.17-3.13-3.13 0-4.17 1.46-4.17 5.21zM238.95 665.06c-4.38 12.72-12.3 20.64-23.77 23.77-9.17 2.29-12.3 7.71-4.79 7.71 2.5 0 8.13 1.88 12.72 4.38 6.46 3.13 9.59 6.88 13.55 15.01 2.71 6.05 5 12.09 5 13.34 0 5 3.75 2.71 5.21-3.13 2.92-11.88 8.13-19.39 16.68-24.39 4.79-2.92 10.63-5.21 13.13-5.21 7.92 0 5-5.21-4.38-7.71-11.47-3.13-19.39-11.05-23.77-23.77-2.08-5.63-4.17-10.22-4.79-10.22s-2.7 4.59-4.79 10.22z"/></svg>