<svg xmlns="http://www.w3.org/2000/svg" viewBox="0 0 1000 1000"><path d="M194 619.8c-7.3-19-13-38-17-57.3L38.5 680.7l181.9-7.3c-10.1-16.8-19-34.7-26.4-53.6zm57.5 95.8l-60.8 171.7L344.6 790c-17.2-9.5-33.8-20.6-49.6-33.2-16-12.7-30.5-26.5-43.5-41.2zm554.6-335.4c7.3 19 13 38.1 16.9 57.3l138.5-118.2-181.9 7.2c10.1 16.9 19 34.7 26.5 53.7zm-57.5-95.8l60.8-171.7L655.5 210c17.2 9.5 33.9 20.6 49.7 33.2 15.8 12.7 30.3 26.4 43.4 41.2zM607.5 189L574.3 10l-84.7 161.2c19.6-.4 39.6.8 59.7 3.9 20 3 39.5 7.7 58.2 13.9zm-227.2 5c18.8-7.4 38-13 57.3-17L319.4 38.4l7.2 181.9c16.8-10.1 34.7-18.9 53.7-26.3zM243.2 294.8c12.8-15.8 26.5-30.3 41.1-43.3l-171.6-60.8L210 344.6c9.5-17.2 20.6-33.9 33.2-49.8zm-68.1 156c3.1-20.1 7.7-39.5 14-58.2L10 425.7l161.2 84.7c-.4-19.7.8-39.6 3.9-59.6zm217.5 360.3l33.1 179 84.7-161.2c-19.6.4-39.5-.8-59.7-3.9-20-3.1-39.4-7.8-58.1-13.9zm227.2-5.1c-18.9 7.4-38.1 13-57.4 17.1l118.3 138.5-7.2-181.9c-16.9 10.1-34.8 18.9-53.7 26.3zm137-100.8c-12.7 15.9-26.4 30.3-41.1 43.4l171.6 60.7L790 655.5c-9.5 17.1-20.5 33.7-33.2 49.7zm68.1-155.9c-3.1 20-7.8 39.4-14 58.1l179-33.1-161.2-84.7c.5 19.7-.7 39.6-3.8 59.7zM539.5 239.9c-143.8-21.7-277.8 77-299.6 220.7-21.8 143.8 77 277.7 220.7 299.6s277.8-77 299.6-220.7c21.7-143.7-77.1-277.8-220.7-299.6z"/></svg>